{"title":"Blue Lagoon, The Awakening 2012 DVD9rip English Klam","uid":7941950,"size":1877749530,"categoryP":"video","categoryS":"movies","magnet":"?xt=urn:btih:90ef66a9715b3c4049d5cf7d0bfc07e6c7930723&amp;dn=Blue+Lagoon%2C+The+Awakening+2012+DVD9rip+English+Klam&amp;tr=udp%3A%2F%2Ftracker.openbittorrent.com%3A80&amp;tr=udp%3A%2F%2Fopen.demonii.com%3A1337&amp;tr=udp%3A%2F%2Ftracker.coppersurfer.tk%3A6969&amp;tr=udp%3A%2F%2Fexodus.desync.com%3A6969","seeders":2,"leechers":0,"uploader":"Klambake","files":-1,"time":1356014065,"description":"With: Indiana Evans, Brenton Thwaites and Denise Richards\n\nDe ijverige Emma Robinson en lijntrekker Dean McMullen zijn twee tieners die elkaar leren kennen, een normaal leven leiden en samen naar school gaan. Dan gaat hun klas op een humanitaire reis naar Trinidad. Op weg daarheen is er een feestje op de boot, maar er komt een zware storm opzetten, waarbij Emma overboord slaat en Dean haar achterna springt om haar te redden. Zo spoelen ze aan op een verlaten eiland. Geleidelijk aan leren ze te overleven in hun nieuwe omgeving. Emma en Dean worden op elkaar verliefd, terwijl hun ouders een zoektocht naar hen organiseren.\n\nTwo high school students become stranded on a tropical island and must rely on each other for survival. They also learn more about themselves and each other while falling in love. \n &lt;a href=&quot;\nhttp://www.imdb.com/title/tt2287663&quot; rel=&quot;nofollow&quot; target=&quot;_NEW&quot;&gt;\nhttp://www.imdb.com/title/tt2287663&lt;/a&gt;\t\n\n------------------------ Dutch Friends ------------------------\n---------------------------------------------------------------\n- Bezoek ook eens mijn vrienden op: &lt;a href=&quot; http://www.Film-Test.nl&quot; rel=&quot;nofollow&quot; target=&quot;_NEW&quot;&gt; http://www.Film-Test.nl&lt;/a&gt; --\n----- voor mijn Nederlandse Sync. ondertitels ---- en meer ----\n------- http://www.Film-Test.nl ---- Over Films en meer -------\n---------------------------------------------------------------\n\nGeneral:\n\nComplete name                    : Blue Lagoon, The AwakeningBlue Lagoon, The Awakening.avi\nFormat                           : AVI\nFormat/Info                      : Audio Video Interleave\nFile size                        : 1.75 GiB\nDuration                         : 1h 28mn\nOverall bit rate                 : 2 817 Kbps\n\nVideo:\n\nFormat                           : MPEG-4 Visual\nFormat profile                   : Simple@L3\nFormat settings, BVOP            : No\nFormat settings, QPel            : No\nFormat settings, GMC             : No warppoints\nFormat settings, Matrix          : Default (H.263)\nCodec ID                         : XVID\nCodec ID/Hint                    : XviD\nDuration                         : 1h 28mn\nBit rate                         : 2 359 Kbps\nWidth                            : 704 pixels\nHeight                           : 396 pixels\nDisplay aspect ratio             : 16:9\nFrame rate                       : 23.976 fps\nColor space                      : YUV\nChroma subsampling               : 4:2:0\nBit depth                        : 8 bits\nScan type                        : Progressive\nCompression mode                 : Lossy\nBits/(Pixel*Frame)               : 0.353\nStream size                      : 1.46 GiB (84%)\nWriting library                  : XviD 1.1.2 (UTC 2006-11-01)\n\nAudio:\n\nFormat                           : AC-3\nFormat/Info                      : Audio Coding 3\nMode extension                   : CM (complete main)\nCodec ID                         : 2000\nDuration                         : 1h 28mn\nBit rate mode                    : Constant\nBit rate                         : 448 Kbps\nChannel(s)                       : 6 channels\nChannel positions                : Front: L C R, Side: L R, LFE\nSampling rate                    : 48.0 KHz\nBit depth                        : 16 bits\nCompression mode                 : Lossy\nStream size                      : 285 MiB (16%)\nAlignment                        : Aligned on interleaves\nInterleave, duration             : 32 ms (0.77 video frame)\nInterleave, preload duration     : 160 ms","torrent":{"xt":"urn:btih:90ef66a9715b3c4049d5cf7d0bfc07e6c7930723","amp;dn":"Blue+Lagoon%2C+The+Awakening+2012+DVD9rip+English+Klam","amp;tr":["udp%3A%2F%2Ftracker.openbittorrent.com%3A80","udp%3A%2F%2Fopen.demonii.com%3A1337","udp%3A%2F%2Ftracker.coppersurfer.tk%3A6969","udp%3A%2F%2Fexodus.desync.com%3A6969"],"infoHash":"90ef66a9715b3c4049d5cf7d0bfc07e6c7930723","infoHashBuffer":{"type":"Buffer","data":[144,239,102,169,113,91,60,64,73,213,207,125,11,252,7,230,199,147,7,35]},"announce":[],"urlList":[]}}